<svg xmlns="http://www.w3.org/2000/svg" viewBox="0 0 960 540" width="960" height="540" role="img"><title>Token window data structure</title><desc>The alphabet assigns each character an id. The example text is encoded, right padded with id zero, then split into x (first T ids), y (the same ids shifted by one), and a mask that is one only where y is an answer or stop token.</desc><style>text{font-family:ui-monospace,monospace;fill:#dbeafe;font-size:12px}.h{font-size:20px}.k{fill:#fbbf24}.s{font-size:9px}.m{fill:#a5b4fc}.panel{fill:#172033;stroke:#52627a;stroke-width:2}.cell{fill:#0f172a;stroke:#52627a}.pad{fill:#1e293b;stroke:#334155}.on{fill:#db2777}.t0{fill:#2563eb}.t1{fill:#16a34a}.t2{fill:#d97706}.t3{fill:#7c3aed}.tr{fill:#2563eb}.va{fill:#db2777}.l1{fill:none;stroke:#fbbf24;stroke-width:2}.l2{fill:none;stroke:#db2777;stroke-width:2}.axis{stroke:#52627a;stroke-width:1}.heat{fill:#2563eb;stroke:#52627a}.box{fill:#172033;stroke:#a5b4fc;stroke-width:1.5}</style><rect width="960" height="540" fill="#0b1020"/><text x="32" y="36" class="h">TOKEN WINDOW -- text to x, y, mask</text><text x="32" y="60" class="m">WHAT: alphabet of 52 characters; a character index is its token id; index 0 (~) is padding</text><rect x="32" y="74" width="15" height="24" class="cell"/><text x="39" y="91" class="">~</text><rect x="49" y="74" width="15" height="24" class="cell"/><text x="56" y="91" class=""> </text><rect x="66" y="74" width="15" height="24" class="cell"/><text x="73" y="91" class="">0</text><rect x="83" y="74" width="15" height="24" class="cell"/><text x="90" y="91" class="">1</text><rect x="100" y="74" width="15" height="24" class="cell"/><text x="107" y="91" class="">2</text><rect x="117" y="74" width="15" height="24" class="cell"/><text x="124" y="91" class="">3</text><rect x="134" y="74" width="15" height="24" class="cell"/><text x="141" y="91" class="">4</text><rect x="151" y="74" width="15" height="24" class="cell"/><text x="158" y="91" class="">5</text><rect x="168" y="74" width="15" height="24" class="cell"/><text x="175" y="91" class="">6</text><rect x="185" y="74" width="15" height="24" class="cell"/><text x="192" y="91" class="">7</text><rect x="202" y="74" width="15" height="24" class="cell"/><text x="209" y="91" class="">8</text><rect x="219" y="74" width="15" height="24" class="cell"/><text x="226" y="91" class="">9</text><rect x="236" y="74" width="15" height="24" class="cell"/><text x="243" y="91" class="">+</text><rect x="253" y="74" width="15" height="24" class="cell"/><text x="260" y="91" class="">-</text><rect x="270" y="74" width="15" height="24" class="cell"/><text x="277" y="91" class="">*</text><rect x="287" y="74" width="15" height="24" class="cell"/><text x="294" y="91" class="">=</text><rect x="304" y="74" width="15" height="24" class="cell"/><text x="311" y="91" class="">></text><rect x="321" y="74" width="15" height="24" class="cell"/><text x="328" y="91" class="">,</text><rect x="338" y="74" width="15" height="24" class="cell"/><text x="345" y="91" class="">[</text><rect x="355" y="74" width="15" height="24" class="cell"/><text x="362" y="91" class="">]</text><rect x="372" y="74" width="15" height="24" class="cell"/><text x="379" y="91" class="">(</text><rect x="389" y="74" width="15" height="24" class="cell"/><text x="396" y="91" class="">)</text><rect x="406" y="74" width="15" height="24" class="cell"/><text x="413" y="91" class="">:</text><rect x="423" y="74" width="15" height="24" class="cell"/><text x="430" y="91" class="">a</text><rect x="440" y="74" width="15" height="24" class="cell"/><text x="447" y="91" class="">b</text><rect x="457" y="74" width="15" height="24" class="cell"/><text x="464" y="91" class="">c</text><rect x="474" y="74" width="15" height="24" class="cell"/><text x="481" y="91" class="">d</text><rect x="491" y="74" width="15" height="24" class="cell"/><text x="498" y="91" class="">e</text><rect x="508" y="74" width="15" height="24" class="cell"/><text x="515" y="91" class="">f</text><rect x="525" y="74" width="15" height="24" class="cell"/><text x="532" y="91" class="">g</text><rect x="542" y="74" width="15" height="24" class="cell"/><text x="549" y="91" class="">h</text><rect x="559" y="74" width="15" height="24" class="cell"/><text x="566" y="91" class="">i</text><rect x="576" y="74" width="15" height="24" class="cell"/><text x="583" y="91" class="">j</text><rect x="593" y="74" width="15" height="24" class="cell"/><text x="600" y="91" class="">k</text><rect x="610" y="74" width="15" height="24" class="cell"/><text x="617" y="91" class="">l</text><rect x="627" y="74" width="15" height="24" class="cell"/><text x="634" y="91" class="">m</text><rect x="644" y="74" width="15" height="24" class="cell"/><text x="651" y="91" class="">n</text><rect x="661" y="74" width="15" height="24" class="cell"/><text x="668" y="91" class="">o</text><rect x="678" y="74" width="15" height="24" class="cell"/><text x="685" y="91" class="">p</text><rect x="695" y="74" width="15" height="24" class="cell"/><text x="702" y="91" class="">q</text><rect x="712" y="74" width="15" height="24" class="cell"/><text x="719" y="91" class="">r</text><rect x="729" y="74" width="15" height="24" class="cell"/><text x="736" y="91" class="">s</text><rect x="746" y="74" width="15" height="24" class="cell"/><text x="753" y="91" class="">t</text><rect x="763" y="74" width="15" height="24" class="cell"/><text x="770" y="91" class="">u</text><rect x="780" y="74" width="15" height="24" class="cell"/><text x="787" y="91" class="">v</text><rect x="797" y="74" width="15" height="24" class="cell"/><text x="804" y="91" class="">w</text><rect x="814" y="74" width="15" height="24" class="cell"/><text x="821" y="91" class="">x</text><rect x="831" y="74" width="15" height="24" class="cell"/><text x="838" y="91" class="">y</text><rect x="848" y="74" width="15" height="24" class="cell"/><text x="855" y="91" class="">z</text><rect x="865" y="74" width="15" height="24" class="cell"/><text x="872" y="91" class="">_</text><rect x="882" y="74" width="15" height="24" class="cell"/><text x="889" y="91" class="">|</text><rect x="899" y="74" width="15" height="24" class="cell"/><text x="906" y="91" class="">.</text><rect x="32" y="100" width="15" height="24" class="cell"/><text x="34" y="116" class="s">0</text><rect x="49" y="100" width="15" height="24" class="cell"/><text x="51" y="116" class="s">1</text><rect x="66" y="100" width="15" height="24" class="cell"/><text x="68" y="116" class="s">2</text><rect x="83" y="100" width="15" height="24" class="cell"/><text x="85" y="116" class="s">3</text><rect x="100" y="100" width="15" height="24" class="cell"/><text x="102" y="116" class="s">4</text><rect x="117" y="100" width="15" height="24" class="cell"/><text x="119" y="116" class="s">5</text><rect x="134" y="100" width="15" height="24" class="cell"/><text x="136" y="116" class="s">6</text><rect x="151" y="100" width="15" height="24" class="cell"/><text x="153" y="116" class="s">7</text><rect x="168" y="100" width="15" height="24" class="cell"/><text x="170" y="116" class="s">8</text><rect x="185" y="100" width="15" height="24" class="cell"/><text x="187" y="116" class="s">9</text><rect x="202" y="100" width="15" height="24" class="cell"/><text x="204" y="116" class="s">10</text><rect x="219" y="100" width="15" height="24" class="cell"/><text x="221" y="116" class="s">11</text><rect x="236" y="100" width="15" height="24" class="cell"/><text x="238" y="116" class="s">12</text><rect x="253" y="100" width="15" height="24" class="cell"/><text x="255" y="116" class="s">13</text><rect x="270" y="100" width="15" height="24" class="cell"/><text x="272" y="116" class="s">14</text><rect x="287" y="100" width="15" height="24" class="cell"/><text x="289" y="116" class="s">15</text><rect x="304" y="100" width="15" height="24" class="cell"/><text x="306" y="116" class="s">16</text><rect x="321" y="100" width="15" height="24" class="cell"/><text x="323" y="116" class="s">17</text><rect x="338" y="100" width="15" height="24" class="cell"/><text x="340" y="116" class="s">18</text><rect x="355" y="100" width="15" height="24" class="cell"/><text x="357" y="116" class="s">19</text><rect x="372" y="100" width="15" height="24" class="cell"/><text x="374" y="116" class="s">20</text><rect x="389" y="100" width="15" height="24" class="cell"/><text x="391" y="116" class="s">21</text><rect x="406" y="100" width="15" height="24" class="cell"/><text x="408" y="116" class="s">22</text><rect x="423" y="100" width="15" height="24" class="cell"/><text x="425" y="116" class="s">23</text><rect x="440" y="100" width="15" height="24" class="cell"/><text x="442" y="116" class="s">24</text><rect x="457" y="100" width="15" height="24" class="cell"/><text x="459" y="116" class="s">25</text><rect x="474" y="100" width="15" height="24" class="cell"/><text x="476" y="116" class="s">26</text><rect x="491" y="100" width="15" height="24" class="cell"/><text x="493" y="116" class="s">27</text><rect x="508" y="100" width="15" height="24" class="cell"/><text x="510" y="116" class="s">28</text><rect x="525" y="100" width="15" height="24" class="cell"/><text x="527" y="116" class="s">29</text><rect x="542" y="100" width="15" height="24" class="cell"/><text x="544" y="116" class="s">30</text><rect x="559" y="100" width="15" height="24" class="cell"/><text x="561" y="116" class="s">31</text><rect x="576" y="100" width="15" height="24" class="cell"/><text x="578" y="116" class="s">32</text><rect x="593" y="100" width="15" height="24" class="cell"/><text x="595" y="116" class="s">33</text><rect x="610" y="100" width="15" height="24" class="cell"/><text x="612" y="116" class="s">34</text><rect x="627" y="100" width="15" height="24" class="cell"/><text x="629" y="116" class="s">35</text><rect x="644" y="100" width="15" height="24" class="cell"/><text x="646" y="116" class="s">36</text><rect x="661" y="100" width="15" height="24" class="cell"/><text x="663" y="116" class="s">37</text><rect x="678" y="100" width="15" height="24" class="cell"/><text x="680" y="116" class="s">38</text><rect x="695" y="100" width="15" height="24" class="cell"/><text x="697" y="116" class="s">39</text><rect x="712" y="100" width="15" height="24" class="cell"/><text x="714" y="116" class="s">40</text><rect x="729" y="100" width="15" height="24" class="cell"/><text x="731" y="116" class="s">41</text><rect x="746" y="100" width="15" height="24" class="cell"/><text x="748" y="116" class="s">42</text><rect x="763" y="100" width="15" height="24" class="cell"/><text x="765" y="116" class="s">43</text><rect x="780" y="100" width="15" height="24" class="cell"/><text x="782" y="116" class="s">44</text><rect x="797" y="100" width="15" height="24" class="cell"/><text x="799" y="116" class="s">45</text><rect x="814" y="100" width="15" height="24" class="cell"/><text x="816" y="116" class="s">46</text><rect x="831" y="100" width="15" height="24" class="cell"/><text x="833" y="116" class="s">47</text><rect x="848" y="100" width="15" height="24" class="cell"/><text x="850" y="116" class="s">48</text><rect x="865" y="100" width="15" height="24" class="cell"/><text x="867" y="116" class="s">49</text><rect x="882" y="100" width="15" height="24" class="cell"/><text x="884" y="116" class="s">50</text><rect x="899" y="100" width="15" height="24" class="cell"/><text x="901" y="116" class="s">51</text><text x="32" y="160" class="k">example text  2+3=|5.</text><rect x="260" y="143" width="28" height="24" class="cell"/><text x="267" y="160" class="">2</text><rect x="290" y="143" width="28" height="24" class="cell"/><text x="297" y="160" class="">+</text><rect x="320" y="143" width="28" height="24" class="cell"/><text x="327" y="160" class="">3</text><rect x="350" y="143" width="28" height="24" class="cell"/><text x="357" y="160" class="">=</text><rect x="380" y="143" width="28" height="24" class="cell"/><text x="387" y="160" class="">|</text><rect x="410" y="143" width="28" height="24" class="cell"/><text x="417" y="160" class="">5</text><rect x="440" y="143" width="28" height="24" class="cell"/><text x="447" y="160" class="">.</text><text x="32" y="200" class="k">ids</text><rect x="260" y="183" width="28" height="24" class="cell"/><text x="265" y="200" class="">4</text><rect x="290" y="183" width="28" height="24" class="cell"/><text x="295" y="200" class="">12</text><rect x="320" y="183" width="28" height="24" class="cell"/><text x="325" y="200" class="">5</text><rect x="350" y="183" width="28" height="24" class="cell"/><text x="355" y="200" class="">15</text><rect x="380" y="183" width="28" height="24" class="cell"/><text x="385" y="200" class="">50</text><rect x="410" y="183" width="28" height="24" class="cell"/><text x="415" y="200" class="">7</text><rect x="440" y="183" width="28" height="24" class="cell"/><text x="445" y="200" class="">51</text><text x="32" y="250" class="k">x = first T ids</text><rect x="260" y="233" width="28" height="24" class="cell"/><text x="265" y="250" class="">4</text><rect x="290" y="233" width="28" height="24" class="cell"/><text x="295" y="250" class="">12</text><rect x="320" y="233" width="28" height="24" class="cell"/><text x="325" y="250" class="">5</text><rect x="350" y="233" width="28" height="24" class="cell"/><text x="355" y="250" class="">15</text><rect x="380" y="233" width="28" height="24" class="cell"/><text x="385" y="250" class="">50</text><rect x="410" y="233" width="28" height="24" class="cell"/><text x="415" y="250" class="">7</text><rect x="440" y="233" width="28" height="24" class="cell"/><text x="445" y="250" class="">51</text><rect x="470" y="233" width="28" height="24" class="pad"/><text x="475" y="250" class="">0</text><rect x="500" y="233" width="28" height="24" class="pad"/><text x="505" y="250" class="">0</text><rect x="530" y="233" width="28" height="24" class="pad"/><text x="535" y="250" class="">0</text><rect x="560" y="233" width="28" height="24" class="pad"/><text x="565" y="250" class="">0</text><rect x="590" y="233" width="28" height="24" class="pad"/><text x="595" y="250" class="">0</text><text x="32" y="290" class="k">y = shifted by one</text><rect x="260" y="273" width="28" height="24" class="cell"/><text x="265" y="290" class="">12</text><rect x="290" y="273" width="28" height="24" class="cell"/><text x="295" y="290" class="">5</text><rect x="320" y="273" width="28" height="24" class="cell"/><text x="325" y="290" class="">15</text><rect x="350" y="273" width="28" height="24" class="cell"/><text x="355" y="290" class="">50</text><rect x="380" y="273" width="28" height="24" class="on"/><text x="385" y="290" class="">7</text><rect x="410" y="273" width="28" height="24" class="on"/><text x="415" y="290" class="">51</text><rect x="440" y="273" width="28" height="24" class="pad"/><text x="445" y="290" class="">0</text><rect x="470" y="273" width="28" height="24" class="pad"/><text x="475" y="290" class="">0</text><rect x="500" y="273" width="28" height="24" class="pad"/><text x="505" y="290" class="">0</text><rect x="530" y="273" width="28" height="24" class="pad"/><text x="535" y="290" class="">0</text><rect x="560" y="273" width="28" height="24" class="pad"/><text x="565" y="290" class="">0</text><rect x="590" y="273" width="28" height="24" class="pad"/><text x="595" y="290" class="">0</text><text x="32" y="330" class="k">mask = answer targets</text><rect x="260" y="313" width="28" height="24" class="pad"/><text x="265" y="330" class="">0</text><rect x="290" y="313" width="28" height="24" class="pad"/><text x="295" y="330" class="">0</text><rect x="320" y="313" width="28" height="24" class="pad"/><text x="325" y="330" class="">0</text><rect x="350" y="313" width="28" height="24" class="pad"/><text x="355" y="330" class="">0</text><rect x="380" y="313" width="28" height="24" class="on"/><text x="385" y="330" class="">1</text><rect x="410" y="313" width="28" height="24" class="on"/><text x="415" y="330" class="">1</text><rect x="440" y="313" width="28" height="24" class="pad"/><text x="445" y="330" class="">0</text><rect x="470" y="313" width="28" height="24" class="pad"/><text x="475" y="330" class="">0</text><rect x="500" y="313" width="28" height="24" class="pad"/><text x="505" y="330" class="">0</text><rect x="530" y="313" width="28" height="24" class="pad"/><text x="535" y="330" class="">0</text><rect x="560" y="313" width="28" height="24" class="pad"/><text x="565" y="330" class="">0</text><rect x="590" y="313" width="28" height="24" class="pad"/><text x="595" y="330" class="">0</text><rect x="30" y="360" width="900" height="160" class="panel"/><text x="50" y="390" class="">WHY: next-token prediction needs an input row and a target row offset by one; padding to T lets N examples stack as [N, T].</text><text x="50" y="415" class="">WHY: the mask limits scoring to the answer and stop tokens, so a model is graded on answering, not on copying the prompt.</text><text x="50" y="445" class="">HOW: u:domain_encode maps characters with str_find; u:domain_window pads with fill, slices x and y with gather_rows,</text><text x="50" y="470" class="">     builds the mask as gt(position, bar) * lt(position, length); u:domain_windows stacks rows with concat on axis 0.</text><text x="50" y="500" class="m">Highlighted y cells are the two masked targets, the answer 5 and the stop token; tests/test_domain.mlpl asserts them.</text></svg>